<?xml version="1.0" encoding="utf-8"?>
<!-- Generator: Adobe Illustrator 21.1.0, SVG Export Plug-In . SVG Version: 6.00 Build 0)  -->
<svg version="1.1" xmlns="http://www.w3.org/2000/svg" xmlns:xlink="http://www.w3.org/1999/xlink" x="0px" y="0px"
	 viewBox="0 0 493 312" style="enable-background:new 0 0 493 312;" xml:space="preserve">
<style type="text/css">
	.st0{fill:#FFFFFF;}
	.st1{fill:#C10020;}
	.st2{clip-path:url(#XMLID_14_);}
</style>
<g id="Layer_2">
	<rect id="XMLID_3_" class="st0" width="493" height="312"/>
</g>
<g id="Layer_1">
	<rect id="XMLID_1_" class="st1" width="164" height="312"/>
	<g id="XMLID_2_">
		<g id="XMLID_25_">
			<path id="XMLID_29_" class="st0" d="M583.2,166.8c0-1.1,0.9-2,2-2h5.7c1.1,0,2,0.9,2,2v26.4c0,1.1,0.6,2.6,1.4,3.4l35.6,35.6
				c0.8,0.8,0.5,1.4-0.6,1.4h-9.7c-1.1,0-2.6-0.6-3.4-1.4l-31.6-31.6c-0.8-0.8-1.4-2.3-1.4-3.4V166.8z"/>
		</g>
		<g id="XMLID_36_">
			<path id="XMLID_27_" class="st0" d="M600.8,164.8c-1.1,0-2,0.9-2,2v23.9c0,1.1,0.6,2.6,1.4,3.4l6.3,6.3c0.8,0.8,2.1,0.8,2.8,0
				l20.5-20.5c0.8-0.8,1.4-2.3,1.4-3.4v-9.7c0-1.1-0.6-1.4-1.4-0.6l-5.3,5.3c-0.8,0.8-2.1,0.8-2.8,0l-5.3-5.3
				c-0.8-0.8-2.3-1.4-3.4-1.4H600.8z"/>
		</g>
		<g id="XMLID_35_">
			<path id="XMLID_24_" class="st0" d="M583.2,209.6c0-1.1,0.6-1.4,1.4-0.6l6.8,6.8c0.8,0.8,1.4,2.3,1.4,3.4v12.3c0,1.1-0.9,2-2,2
				h-5.7c-1.1,0-2-0.9-2-2L583.2,209.6L583.2,209.6z"/>
		</g>
	</g>
	<g>
		<defs>
			<rect id="XMLID_12_" width="164" height="312"/>
		</defs>
		<clipPath id="XMLID_14_">
			<use xlink:href="#XMLID_12_"  style="overflow:visible;"/>
		</clipPath>
		<g id="XMLID_5_" class="st2">
			<g id="XMLID_10_">
				<path id="XMLID_11_" class="st0" d="M-99.2,26.8c0-5.6,4.6-10.1,10.1-10.1h28.7c5.6,0,10.1,4.6,10.1,10.1v133.5
					c0,5.6,3.2,13.3,7.2,17.4L137,357.8c3.9,3.9,2.7,7.2-2.9,7.2H85.1c-5.6,0-13.3-3.2-17.4-7.2L-92,198c-3.9-3.9-7.2-11.8-7.2-17.4
					V26.8z"/>
			</g>
			<g id="XMLID_8_">
				<path id="XMLID_9_" class="st0" d="M-10,16.7c-5.6,0-10.1,4.6-10.1,10.1v121c0,5.6,3.2,13.3,7.2,17.4L18.9,197
					c3.9,3.9,10.4,3.9,14.3,0L137,93.1c3.9-3.9,7.2-11.8,7.2-17.4V26.8c0-5.6-3.2-7-7.2-2.9l-27,26.9c-3.9,3.9-10.4,3.9-14.3,0
					L68.8,23.9C64.8,20,57,16.7,51.4,16.7H-10z"/>
			</g>
			<g id="XMLID_6_">
				<path id="XMLID_7_" class="st0" d="M-99.2,243.5c0-5.6,3.2-7,7.2-2.9l34.6,34.5c3.9,3.9,7.2,11.8,7.2,17.4v62.3
					c0,5.6-4.6,10.1-10.1,10.1H-89c-5.6,0-10.1-4.6-10.1-10.1V243.5H-99.2z"/>
			</g>
		</g>
	</g>
</g>
</svg>
