<?xml version="1.0" encoding="utf-8"?>
<!-- Generator: Adobe Illustrator 21.1.0, SVG Export Plug-In . SVG Version: 6.00 Build 0)  -->
<svg version="1.1" xmlns="http://www.w3.org/2000/svg" xmlns:xlink="http://www.w3.org/1999/xlink" x="0px" y="0px"
	 viewBox="0 0 493 58" style="enable-background:new 0 0 493 58;" xml:space="preserve">
<style type="text/css">
	.st0{clip-path:url(#XMLID_24_);}
	.st1{fill:#FF6800;}
	.st2{fill:#C10020;}
	.st3{fill:#803E75;}
</style>
<g id="Layer_1">
	<g>
		<defs>
			<rect id="XMLID_1_" width="493" height="58"/>
		</defs>
		<clipPath id="XMLID_24_">
			<use xlink:href="#XMLID_1_"  style="overflow:visible;"/>
		</clipPath>
		<g id="XMLID_3_" class="st0">
			<g id="XMLID_8_">
				<path id="XMLID_9_" class="st1" d="M329.3-98.1c0-3,2.5-5.4,5.5-5.4h15.5c3,0,5.5,2.4,5.5,5.4v70.6c0,3,1.7,7,3.9,9.2L457.2,77
					c2.1,2.1,1.4,3.8-1.6,3.8h-26.5c-3,0-7.2-1.7-9.4-3.8L333.2-7.5c-2.1-2.1-3.9-6.2-3.9-9.2V-98.1z"/>
			</g>
			<g id="XMLID_6_">
				<path id="XMLID_7_" class="st1" d="M377.6-103.5c-3,0-5.5,2.4-5.5,5.4v64c0,3,1.7,7,3.9,9.2l17.2,16.8c2.1,2.1,5.6,2.1,7.8,0
					L457.2-63c2.1-2.1,3.9-6.2,3.9-9.2v-25.9c0-3-1.7-3.7-3.9-1.5l-14.6,14.2c-2.1,2.1-5.6,2.1-7.8,0l-14.6-14.2
					c-2.1-2.1-6.4-3.8-9.4-3.8H377.6z"/>
			</g>
			<g id="XMLID_4_">
				<path id="XMLID_5_" class="st1" d="M329.3,16.5c0-3,1.7-3.7,3.9-1.5L352,33.2c2.1,2.1,3.9,6.2,3.9,9.2v32.9c0,3-2.5,5.4-5.5,5.4
					h-15.5c-3,0-5.5-2.4-5.5-5.4L329.3,16.5L329.3,16.5z"/>
			</g>
		</g>
		<g id="XMLID_2_" class="st0">
			<g id="XMLID_14_">
				<path id="XMLID_15_" class="st2" d="M403.3-0.1c-2.1-2.1-2-5.5,0.1-7.7l11-11c2.1-2.1,5.6-2.2,7.7-0.1l49.9,49.9
					c2.1,2.1,6.2,3.8,9.3,3.7l136.3-1.6c3,0,3.7,1.7,1.6,3.8l-18.7,18.7c-2.1,2.1-6.3,3.9-9.4,3.9l-120.9,1.4c-3,0-7.2-1.6-9.3-3.7
					L403.3-0.1z"/>
			</g>
			<g id="XMLID_12_">
				<path id="XMLID_13_" class="st2" d="M433.6-38.1c-2.1,2.1-2.2,5.6-0.1,7.7l45.2,45.2c2.1,2.1,6.2,3.8,9.3,3.7l24.1-0.3
					c3,0,5.5-2.5,5.5-5.5l0.9-78.6c0-3-1.6-7.2-3.7-9.3l-18.3-18.3c-2.1-2.1-3.8-1.4-3.9,1.7l-0.3,20.4c0,3-2.5,5.5-5.5,5.5
					l-20.3,0.2c-3,0-7.2,1.8-9.4,3.9L433.6-38.1z"/>
			</g>
			<g id="XMLID_10_">
				<path id="XMLID_11_" class="st2" d="M484.3,81c-2.1-2.1-1.4-3.8,1.7-3.9l26.2-0.4c3,0,7.2,1.6,9.3,3.7l23.3,23.3
					c2.1,2.1,2,5.5-0.1,7.7l-11,11c-2.1,2.1-5.6,2.2-7.7,0.1L484.3,81L484.3,81z"/>
			</g>
		</g>
		<g id="XMLID_16_" class="st0">
			<g id="XMLID_21_">
				<path id="XMLID_22_" class="st3" d="M197.9-46.6c-2.1,2.1-2,5.5,0.1,7.7l11,11c2.1,2.1,5.6,2.2,7.7,0.1l49.9-49.9
					c2.1-2.1,6.2-3.8,9.3-3.7l136.3,1.6c3,0,3.7-1.7,1.6-3.8L395-102.5c-2.1-2.1-6.3-3.9-9.4-3.9l-120.9-1.4c-3,0-7.2,1.6-9.3,3.7
					L197.9-46.6z"/>
			</g>
			<g id="XMLID_19_">
				<path id="XMLID_20_" class="st3" d="M228.2-8.6c-2.1-2.1-2.2-5.6-0.1-7.7l45.2-45.2c2.1-2.1,6.2-3.8,9.3-3.7l24.1,0.3
					c3,0,5.5,2.5,5.5,5.5l0.9,78.6c0,3-1.6,7.2-3.7,9.3l-18.3,18.3c-2.1,2.1-3.8,1.4-3.9-1.7l-0.3-20.4c0-3-2.5-5.5-5.5-5.5
					l-20.3-0.2c-3,0-7.2-1.8-9.4-3.9L228.2-8.6z"/>
			</g>
			<g id="XMLID_17_">
				<path id="XMLID_18_" class="st3" d="M278.9-127.7c-2.1,2.1-1.4,3.8,1.7,3.9l26.2,0.4c3,0,7.2-1.6,9.3-3.7l23.3-23.3
					c2.1-2.1,2-5.5-0.1-7.7l-11-11c-2.1-2.1-5.6-2.2-7.7-0.1L278.9-127.7L278.9-127.7z"/>
			</g>
		</g>
	</g>
</g>
<g id="Layer_2">
</g>
</svg>
